<svg id="Calque_1" data-name="Calque 1" xmlns="http://www.w3.org/2000/svg" viewBox="0 0 37.84 28.46"><path d="M38.4,3.61A16.34,16.34,0,0,1,34,4.74a7.35,7.35,0,0,0,3.41-4,16.54,16.54,0,0,1-4.93,1.74A8,8,0,0,0,28,.33a8.25,8.25,0,0,0-4.92.76,7.45,7.45,0,0,0-3.42,3.37,6.72,6.72,0,0,0-.48,4.6,23.21,23.21,0,0,1-8.86-2.18A21.86,21.86,0,0,1,3.2,1.56,6.71,6.71,0,0,0,2.15,5.17a6.81,6.81,0,0,0,.91,3.39A7.58,7.58,0,0,0,5.6,11.15a8.38,8.38,0,0,1-3.52-.9v.09a6.85,6.85,0,0,0,1.76,4.55,7.89,7.89,0,0,0,4.47,2.49,8.26,8.26,0,0,1-3.5.12,7.17,7.17,0,0,0,2.76,3.57,8.16,8.16,0,0,0,4.49,1.42,16.42,16.42,0,0,1-9.64,3.08c-.62,0-1.24,0-1.86-.1a23.22,23.22,0,0,0,11.9,3.22c14.29,0,22.09-10.94,22.09-20.43,0-.31,0-.62,0-.93A15,15,0,0,0,38.4,3.62Z" transform="translate(-0.56 -0.24)"/></svg>