<svg width="39" height="29" viewBox="0 0 39 29" fill="none" xmlns="http://www.w3.org/2000/svg">
<path d="M38.405 3.61123C37.0133 4.18164 35.5183 4.56706 33.9467 4.74127C35.5683 3.8437 36.7816 2.43103 37.36 0.76685C35.8364 1.60396 34.1689 2.19319 32.43 2.50893C31.2606 1.35402 29.7118 0.58852 28.0239 0.331289C26.336 0.074059 24.6035 0.339487 23.0954 1.08637C21.5873 1.83324 20.388 3.01978 19.6836 4.46177C18.9792 5.90375 18.8092 7.52051 19.2 9.06102C16.1128 8.91764 13.0927 8.17541 10.3357 6.8825C7.57871 5.58959 5.14641 3.77489 3.19668 1.55618C2.53001 2.61993 2.14668 3.85327 2.14668 5.16677C2.14593 6.34922 2.46073 7.51356 3.06314 8.55648C3.66555 9.5994 4.53694 10.4887 5.60001 11.1454C4.36714 11.1091 3.16146 10.8009 2.08334 10.2466V10.3391C2.08322 11.9975 2.7034 13.6049 3.83865 14.8885C4.9739 16.1721 6.5543 17.0529 8.31168 17.3814C7.16798 17.6677 5.9689 17.7099 4.80501 17.5047C5.30084 18.9317 6.26667 20.1796 7.56729 21.0736C8.86791 21.9676 10.4382 22.463 12.0583 22.4905C9.30806 24.4876 5.91149 25.5709 2.41501 25.5661C1.79564 25.5663 1.1768 25.5328 0.561676 25.4659C4.1108 27.5767 8.24224 28.697 12.4617 28.6926C26.745 28.6926 34.5533 17.7499 34.5533 8.25935C34.5533 7.95102 34.545 7.6396 34.53 7.33127C36.0488 6.31527 37.3599 5.05715 38.4017 3.61585L38.405 3.61123Z" fill="white"/>
</svg>
