<svg width="50" height="50" viewBox="0 0 50 50" fill="none" xmlns="http://www.w3.org/2000/svg">
<g clip-path="url(#clip0_318_2)">
<path d="M48.9596 13.2332C48.6765 12.2233 48.125 11.309 47.3638 10.5874C46.581 9.84367 45.6217 9.31166 44.5763 9.04158C40.6638 8.01033 24.9888 8.01033 24.9888 8.01033C18.4541 7.93598 11.9209 8.26299 5.42629 8.9895C4.38085 9.27952 3.42329 9.82343 2.63879 10.5728C1.86795 11.3145 1.30962 12.2291 1.01795 13.2312C0.317313 17.0056 -0.0231058 20.8381 0.0012858 24.677C-0.0237142 28.5124 0.315869 32.3437 1.01795 36.1228C1.30337 37.1207 1.85962 38.0312 2.63254 38.7666C3.40545 39.502 4.36795 40.0332 5.42629 40.3145C9.39087 41.3437 24.9888 41.3437 24.9888 41.3437C31.5318 41.4181 38.0733 41.0911 44.5763 40.3645C45.6217 40.0944 46.581 39.5624 47.3638 38.8187C48.1248 38.0973 48.6756 37.1828 48.9575 36.1728C49.6765 32.3998 50.026 28.5657 50.0013 24.7249C50.0554 20.8678 49.7062 17.0157 48.9596 13.2312V13.2332ZM20.0055 31.8103V17.5457L33.0471 24.6791L20.0055 31.8103Z" fill="white"/>
</g>
<defs>
<clipPath id="clip0_318_2">
<rect width="50" height="50" fill="white"/>
</clipPath>
</defs>
</svg>
