<svg width="40" height="40" viewBox="0 0 40 40" fill="none" xmlns="http://www.w3.org/2000/svg">
<path d="M20 13.335C16.33 13.335 13.335 16.33 13.335 20C13.335 23.67 16.33 26.665 20 26.665C23.67 26.665 26.665 23.67 26.665 20C26.665 16.33 23.67 13.335 20 13.335ZM39.99 20C39.99 17.24 40.015 14.505 39.86 11.75C39.705 8.55004 38.975 5.71004 36.635 3.37004C34.29 1.02504 31.455 0.300037 28.255 0.145037C25.495 -0.00996304 22.76 0.015037 20.005 0.015037C17.245 0.015037 14.51 -0.00996304 11.755 0.145037C8.55498 0.300037 5.71498 1.03004 3.37498 3.37004C1.02998 5.71504 0.304981 8.55004 0.149981 11.75C-0.0050192 14.51 0.0199809 17.245 0.0199809 20C0.0199809 22.755 -0.0050192 25.495 0.149981 28.25C0.304981 31.45 1.03498 34.29 3.37498 36.63C5.71998 38.975 8.55498 39.7 11.755 39.855C14.515 40.01 17.25 39.985 20.005 39.985C22.765 39.985 25.5 40.01 28.255 39.855C31.455 39.7 34.295 38.97 36.635 36.63C38.98 34.285 39.705 31.45 39.86 28.25C40.02 25.495 39.99 22.76 39.99 20ZM20 30.255C14.325 30.255 9.74498 25.675 9.74498 20C9.74498 14.325 14.325 9.74504 20 9.74504C25.675 9.74504 30.255 14.325 30.255 20C30.255 25.675 25.675 30.255 20 30.255ZM30.675 11.72C29.35 11.72 28.28 10.65 28.28 9.32504C28.28 8.00004 29.35 6.93004 30.675 6.93004C32 6.93004 33.07 8.00004 33.07 9.32504C33.0704 9.63966 33.0087 9.95128 32.8885 10.242C32.7683 10.5328 32.5919 10.797 32.3694 11.0194C32.1469 11.2419 31.8827 11.4183 31.592 11.5385C31.3012 11.6588 30.9896 11.7204 30.675 11.72Z" fill="white"/>
</svg>
