<svg id="Calque_1" data-name="Calque 1" xmlns="http://www.w3.org/2000/svg" viewBox="0 0 39.97 39.97"><path d="M20,13.34A6.67,6.67,0,1,0,26.67,20,6.67,6.67,0,0,0,20,13.34ZM40,20c0-2.76,0-5.49-.13-8.25-.15-3.2-.89-6-3.23-8.38S31.45.3,28.25.15C25.5,0,22.76,0,20,0s-5.49,0-8.24.13C8.55.3,5.71,1,3.37,3.37S.3,8.55.15,11.75C0,14.51,0,17.25,0,20s0,5.5.13,8.25c.15,3.2.88,6,3.22,8.38s5.18,3.07,8.39,3.22C14.52,40,17.25,40,20,40s5.5,0,8.25-.14c3.2-.15,6-.88,8.38-3.22s3.08-5.18,3.23-8.38C40,25.5,40,22.76,40,20ZM20,30.25A10.25,10.25,0,1,1,30.25,20,10.24,10.24,0,0,1,20,30.25ZM30.67,11.72a2.39,2.39,0,1,1,2.22-1.48,2.39,2.39,0,0,1-1.3,1.3A2.39,2.39,0,0,1,30.67,11.72Z" transform="translate(-0.02 -0.01)"/></svg>